# xmcd
#
# Track frame offsets: 
#        150
#        26997
#        44357
#        64920
#        82847
#        108492
#        126857
#        146982
#        159362
#        172895
#        193325
#        219690
#        240330
#        258355
#        265505
#        282757
#
# Disc length: 3959 seconds
#
# Revision: 4
# Processed by: cddbd v1.5.2PL0 Copyright (c) Steve Scherf et al.
# Submitted via: ExactAudioCopy v0.95b4
#
DISCID=e60f7510
DTITLE=Robert Mirabal - Music From A Painted Cave
DYEAR=2001
DGENRE=Ethnic
TTITLE0=The Dance
TTITLE1=Little Indians
TTITLE2=Ee-You-Oo
TTITLE3=Courtship Song
TTITLE4=Medicine Man
TTITLE5=Skinwalker's Moon
TTITLE6=Shield Dance
TTITLE7=Runners Dreamtime
TTITLE8=Hope
TTITLE9=Painted Caves
TTITLE10=1000 Miles
TTITLE11=Drum Battle
TTITLE12=Navajo Fires
TTITLE13=An Kah Na
TTITLE14=Sisters
TTITLE15=Stiltwalker
EXTD=YEAR: 2001 ID3G:  64
EXTT0=
EXTT1=
EXTT2=
EXTT3=
EXTT4=
EXTT5=
EXTT6=
EXTT7=
EXTT8=
EXTT9=
EXTT10=
EXTT11=
EXTT12=
EXTT13=
EXTT14=
EXTT15=
PLAYORDER=
